inDegrees=no
num_controls=7
num_derivatives=13
num_iterations=36
num_multipliers=7
num_parameters=0
num_slacks=7
num_states=26
objective=0.426613
objective_accelerations=0.058042
objective_balance=0.001169
objective_effort=0.015487
objective_height=0.345942
objective_ligament=0.005973
solver_duration=579.847889
status=Solve_Succeeded
success=true
DataType=double
version=3
OpenSimVersion=4.5
endheader
time	/jointset/ground_pelvis/pelvis_tilt/value	/jointset/ground_pelvis/pelvis_tx/value	/jointset/ground_pelvis/pelvis_ty/value	/jointset/hip_l/hip_flexion_l/value	/jointset/hip_l/hip_adduction_l/value	/jointset/hip_l/hip_rotation_l/value	/jointset/back/lumbar_extension/value	/jointset/patellofemoral_l/patellar_flexion_l/value	/jointset/knee_l/knee_flexion_l/value	/jointset/knee_l/knee_adduction_l/value	/jointset/knee_l/knee_rotation_l/value	/jointset/ankle_l/ankle_angle_l/value	/jointset/subtalar_l/subtalar_angle_l/value	/jointset/ground_pelvis/pelvis_tilt/speed	/jointset/ground_pelvis/pelvis_tx/speed	/jointset/ground_pelvis/pelvis_ty/speed	/jointset/hip_l/hip_flexion_l/speed	/jointset/hip_l/hip_adduction_l/speed	/jointset/hip_l/hip_rotation_l/speed	/jointset/back/lumbar_extension/speed	/jointset/patellofemoral_l/patellar_flexion_l/speed	/jointset/knee_l/knee_flexion_l/speed	/jointset/knee_l/knee_adduction_l/speed	/jointset/knee_l/knee_rotation_l/speed	/jointset/ankle_l/ankle_angle_l/speed	/jointset/subtalar_l/subtalar_angle_l/speed	/forceset/tau_hip_flexion_l	/forceset/tau_hip_adduction_l	/forceset/tau_hip_rotation_l	/forceset/tau_knee_flexion_l	/forceset/tau_ankle_angle_l	/forceset/tau_subtalar_angle_l	/forceset/tau_lumbar_extension	lambda_cid13_p0	lambda_cid13_p1	lambda_cid13_p2	lambda_cid13_p3	lambda_cid13_p4	lambda_cid13_p5	lambda_cid14_p0	/jointset/ground_pelvis/pelvis_tilt/accel	/jointset/ground_pelvis/pelvis_tx/accel	/jointset/ground_pelvis/pelvis_ty/accel	/jointset/hip_l/hip_flexion_l/accel	/jointset/hip_l/hip_adduction_l/accel	/jointset/hip_l/hip_rotation_l/accel	/jointset/back/lumbar_extension/accel	/jointset/patellofemoral_l/patellar_flexion_l/accel	/jointset/knee_l/knee_flexion_l/accel	/jointset/knee_l/knee_adduction_l/accel	/jointset/knee_l/knee_rotation_l/accel	/jointset/ankle_l/ankle_angle_l/accel	/jointset/subtalar_l/subtalar_angle_l/accel	gamma_cid13_p0	gamma_cid13_p1	gamma_cid13_p2	gamma_cid13_p3	gamma_cid13_p4	gamma_cid13_p5	gamma_cid14_p0
0	0.0508257724354674	0.1067209842889499	0.9034589203594667	0.1266922784136757	-0.3651619189381338	-0.2209048132906148	-0.2144969558742783	0.2051545070142248	0.2051545070141877	-0.1647931000090915	-0.1539753732643943	0.09024313228550125	0.08426276660705817	0	0	0	0	0	0	0	0	0	0	0	0	0	0.118563310264904	-0.03050685827863613	-0.008829667492495316	-0.2507548226722585	0.1927836328273275	-0.1070151444383022	-0.0512635950061355	29.67787436399312	43.18763546737247	-9.344940495063257	-17.67160921613487	-439.9265155785286	-28.14253065298618	-25.96138113892399	-3.621673889852145	-1.207989827516339	-0.8642376461382253	11.93587319868637	-0.01574985988026796	3.056498030518494	-3.826733858906585	10.64826139376848	10.64826139376847	2.537361858893116	-0.9568231632030069	3.336241023445168	0.961530198642237	2.324892277366516e-08	6.580089967911094e-07	-3.271179002272858e-07	5.964769531001363e-08	9.475375205932094e-09	4.105952519293336e-07	1.125802784905512e-07
0.01	0.0506547978177465	0.1066635166756006	0.9034168074626956	0.1272688863158799	-0.3651637322365467	-0.2207440966295942	-0.2146906838016086	0.2056771232298678	0.2056771232297915	-0.1646712153725209	-0.1540123744124944	0.09041049094018132	0.08430979890481598	-0.03384639287323497	-0.01122812068707219	-0.008418370192810651	0.11446459698864	-0.000566337205386318	0.03212550451011529	-0.03829458287105265	0.1043725566361383	0.1043725566361367	0.02392179199377316	-0.007423276658035211	0.03373976322832949	0.00926906436709818	0.1166368544820741	-0.03901693203638972	-0.008749728325251315	-0.25181642718456	0.1954487381138844	-0.09991151222185807	-0.04910943254540903	31.05975100112535	39.89858609896069	-8.863996550725727	-20.53156265560401	-439.5804291472562	-34.87091860402768	-25.96148695010969	-3.213838543822195	-1.040400963928663	-0.8300034364601748	11.07320840967567	-0.1076777988471388	3.287972798629844	-3.76317011045367	10.30912731094302	10.30912731094286	2.251394439696174	-0.6386068703824856	3.433066395110138	0.8889206854476857	-3.043732055829091e-09	8.47707488748308e-07	-1.696634818961189e-07	8.701376266383199e-08	-1.648458847652076e-07	3.242011319847758e-07	1.158476136594351e-07
0.02	0.05015581595969795	0.106501732300454	0.9032906375178692	0.1289644312800922	-0.3651773293366238	-0.2202626456960196	-0.2152538274795184	0.2072389399142385	0.2072389399142442	-0.1643237515021789	-0.1541243137180123	0.09092329171163666	0.08444538707218578	-0.06560144805678275	-0.02086335235949055	-0.01681140961099594	0.2237874124061806	-0.002356760329976668	0.06414685451508224	-0.0738831501119834	0.2078400937685315	0.2078400937685288	0.04511584679063602	-0.0149876314472249	0.06908842335998329	0.01771117392236187	0.1147103986992347	-0.04752700579390002	-0.008669789157218747	-0.2528780316970635	0.1981138434004581	-0.09280788000515577	-0.04695527008470816	32.48964290687073	36.61734362206797	-8.40282040055104	-23.44337028585953	-438.3572998465991	-41.40523111924503	-25.96182091461687	-3.203406351913852	-0.8894120245861389	-0.8591714912131263	10.90751688446646	-0.2605670437211223	3.035667129488835	-3.285530732881729	10.46725749301968	10.46725749301978	1.991814419511034	-0.9850387894340561	3.658020404109455	0.7961392362751035	-2.933638688532334e-08	1.037405980705507e-06	-1.220906356495204e-08	1.143798300176504e-07	-3.391671447363472e-07	2.378070120402181e-07	1.19114948828319e-07
0.03	0.04934601579990592	0.1062485113908987	0.9030806668556766	0.1317332170864258	-0.3652118516312639	-0.2194648019352139	-0.2161612687905401	0.209826167772476	0.2098261677724574	-0.1637730964208202	-0.1543126750937555	0.09179133036470544	0.0846627765854096	-0.09634637188971047	-0.02981894147227131	-0.02517178765862427	0.3296285373995936	-0.004439762637409932	0.09524909004267001	-0.1073850165942712	0.3089306350121198	0.3089306350121171	0.06503154937757422	-0.02253140236085958	0.1041511467732426	0.0257781268024851	0.1111457018492932	-0.04264853367423418	-0.007745968118689488	-0.2477491434077583	0.1901396792054015	-0.09394975716710603	-0.04440674447000532	29.80271925697031	37.38175284500066	-8.293990090158584	-21.07942032206112	-438.7733392569235	-39.13766575106514	-25.96228011618557	-3.008199649103259	-0.9043261576515358	-0.8228992238686871	10.37122609720665	-0.1661299923018127	3.121614555642147	-3.349500280076744	9.828702174847015	9.828702174846933	1.994080885740515	-0.6160855836766769	3.375204484893963	0.8135209113367365	-3.415256272540476e-08	1.226471467081652e-06	-8.541409473710449e-08	1.447369684945605e-07	-4.708049819883728e-07	3.299962392871332e-07	1.533084218628111e-07
0.04	0.04822913355172543	0.1059045958296086	0.9027874067605371	0.1355501773007865	-0.3652639965825928	-0.2183611132608884	-0.2173971259012226	0.2134040509900832	0.2134040509900891	-0.163022757772114	-0.1545718820469535	0.09299895748690025	0.08496114514692577	-0.1270178657273017	-0.03900228270645249	-0.03346929620031401	0.4334222940101056	-0.005881291666727474	0.1253158372201818	-0.1395663100434572	0.4059711656484535	0.4059711656484503	0.08505256026272189	-0.0291567469284455	0.1370061171848905	0.03390698358083433	0.107581004999711	-0.03777006155457317	-0.006822147079844764	-0.2426202551184129	0.1821655150103523	-0.0950916343290631	-0.0418582188549824	27.16054414112091	38.15604089764877	-8.206970353272133	-18.76821510198759	-438.3708181343887	-36.68245248104311	-25.96185310231184	-3.188720352845678	-0.9349624488667447	-0.8465975900253849	10.49804320788624	-0.1322723880980196	2.828569459473649	-3.021416126260867	9.657255371568947	9.657255371568938	2.01287607915291	-0.8013535202244458	3.216469803786658	0.8085200159200875	-3.852592456570447e-08	1.415523901796332e-06	-1.633749908474698e-07	1.75155778541019e-07	-6.015627486688702e-07	4.258675974039757e-07	1.88139547224429e-07
0.05	0.04680697501014585	0.1054685514943765	0.9024111130519313	0.1403940148449372	-0.3653284904803339	-0.216963012403126	-0.2189472945682379	0.2179351420116777	0.217935142011678	-0.1620733204951628	-0.1548951322413392	0.09452643792758765	0.08534062820895859	-0.1572218226941836	-0.04815723651163542	-0.04180452665528888	0.5347856349204602	-0.007024661168444604	0.1541643761102671	-0.1702329928348129	0.4997673448057218	0.4997673448057192	0.1046534860318702	-0.03540826799552599	0.168323630247305	0.04193957540003473	0.103504102480894	-0.03589265048531703	-0.005856111281764519	-0.2385682644107863	0.1761578002403994	-0.09386658111918966	-0.0388239155480512	25.34722300190501	37.81263321165839	-8.005024511176764	-17.75691414548732	-437.532143953777	-36.47675066997067	-25.95941168537198	-2.907418211067175	-0.8983243964481236	-0.8293693124968692	9.871543751124133	-0.1066271386999174	2.89207255259811	-3.054129775719813	9.168807200018021	9.168807200018206	1.906712676414551	-0.5243574296119932	3.064480934675138	0.792917770813591	-4.185040514833919e-08	1.435611832234164e-06	-1.762659037704632e-07	1.830511766124452e-07	-6.733275174271916e-07	4.365631246632204e-07	1.946468898488636e-07
0.06	0.04508853993037272	0.1049424451110704	0.9019509903309189	0.1462346986418549	-0.3654046696545904	-0.2152806108666909	-0.2207970971472103	0.2233897964272386	0.223389796427241	-0.1609332715904101	-0.1552783588524028	0.09636211127433711	0.08579889499036235	-0.1862731733591893	-0.05701469232124644	-0.05023509868161611	0.6327915445713744	-0.008218346969815341	0.1821759729532237	-0.1994930924319705	0.5906838444514781	0.5906838444514761	0.1231748858257705	-0.0411520302491	0.1986446983979664	0.04966372745497452	0.09942719996175302	-0.03401523941599493	-0.004890075483361205	-0.2345162737034682	0.1701500854703636	-0.09264152790927392	-0.03578961224129678	23.57348587640187	37.47727378248838	-7.82147307354194	-16.78525533182947	-435.968254765877	-36.0999566989655	-25.95370256489189	-2.95819909246956	-0.8754628497528344	-0.8656659042958365	9.826556955998209	-0.1423356480287855	2.661181050047935	-2.740099487420774	9.081319469266763	9.081319469266738	1.796970884103267	-0.6998017575232787	3.01718082143556	0.7468320630677706	-4.513072230959852e-08	1.448585467755076e-06	-1.864170279276726e-07	1.89998220495449e-07	-7.426083704835266e-07	4.436723011495135e-07	1.999616521475219e-07
0.07000000000000001	0.04308379445403736	0.1043291869247526	0.9014058209581396	0.1530409202572267	-0.3654927210759178	-0.2133235206073328	-0.2229315839867857	0.229740046660218	0.2297400466602288	-0.1596126622952852	-0.1557176989228864	0.09849611713097238	0.0863332738342277	-0.2145753722361713	-0.06559108177677714	-0.05883028761549513	0.7279984265678999	-0.009365764316305786	0.2091115331015237	-0.2271474904756976	0.678869106085064	0.6788691060850633	0.1408143951474689	-0.04658996174970234	0.2279720725372631	0.05719465420877105	0.09571471171681087	-0.03213077954045483	-0.003967456348247412	-0.2316390703685095	0.1653776537964371	-0.09138635708238403	-0.03304932833461606	22.17296741111053	37.11645558192693	-7.694365121082154	-16.04335492029223	-434.8212008279788	-35.85109197092626	-25.94344020817246	-2.751132155455175	-0.841809435991719	-0.8613215105007874	9.299603613721944	-0.09719756130213048	2.690236783231474	-2.739592210747289	8.612525045878519	8.612525045878828	1.727779270598367	-0.4469478067052774	2.862896431228651	0.7534104492811979	-4.245945524848913e-08	1.25928352499731e-06	-2.3862237539336e-07	1.769139295110986e-07	-7.44133900951633e-07	4.470397966762531e-07	1.861741557660916e-07
0.08	0.04079904661487536	0.1036315483553706	0.9007737244715051	0.1607855806509681	-0.3655914972273743	-0.2111009760892729	-0.22533491125639	0.2369572286165912	0.2369572286165919	-0.1581195902440174	-0.1562076501005112	0.1009178728732155	0.08694239943918039	-0.2422736459186898	-0.07389076893409841	-0.06762052145269414	0.8204793002541175	-0.01036329299650353	0.2352668246902291	-0.2532611784353009	0.7640701891376124	0.764070189137613	0.1576674370449698	-0.05127425166537512	0.2561946755186346	0.06461307967238469	0.09200222347143236	-0.03024631966491948	-0.003044837212858282	-0.228761867033911	0.1606052221223913	-0.09013118625553888	-0.0303090444281674	20.80759238665135	36.76333635215432	-7.584308265704179	-15.33207815405754	-433.027036024109	-35.44481920107184	-25.92701039350383	-2.837414053576061	-0.8201223901113823	-0.9046748849598188	9.281355293936716	-0.1123579147702892	2.505127338129035	-2.431957470595584	8.48448375305945	8.484483753059445	1.639677399263756	-0.5490734405374906	2.796226589850116	0.7243318050310125	-3.940421501174304e-08	1.056931544931242e-06	-2.935408985563685e-07	1.625372943417575e-07	-7.412881202850148e-07	4.501658934314085e-07	1.711542555988491e-07
